<mxfile host="app.diagrams.net" modified="2023-12-20T08:08:35.232Z" agent="Mozilla/5.0 (Windows NT 10.0; Win64; x64) AppleWebKit/537.36 (KHTML, like Gecko) Chrome/119.0.0.0 Safari/537.36" etag="bfsee1EXUEtBRu98QaHj" version="22.1.11" type="github">
  <diagram name="第 1 页" id="rC39hGufa94ov2SQlZUO">
    <mxGraphModel dx="1434" dy="738" grid="0" gridSize="10" guides="1" tooltips="1" connect="1" arrows="1" fold="1" page="1" pageScale="1" pageWidth="827" pageHeight="1169" math="0" shadow="0">
      <root>
        <mxCell id="0" />
        <mxCell id="1" parent="0" />
        <mxCell id="TpPR3hGTApp2_bVIP7Fh-1" value="游客" style="shape=umlActor;verticalLabelPosition=bottom;verticalAlign=top;html=1;outlineConnect=0;" parent="1" vertex="1">
          <mxGeometry x="125" y="324" width="30" height="60" as="geometry" />
        </mxCell>
        <mxCell id="TpPR3hGTApp2_bVIP7Fh-2" value="用户" style="shape=umlActor;verticalLabelPosition=bottom;verticalAlign=top;html=1;outlineConnect=0;" parent="1" vertex="1">
          <mxGeometry x="355" y="328" width="30" height="60" as="geometry" />
        </mxCell>
        <mxCell id="TpPR3hGTApp2_bVIP7Fh-3" value="管理员" style="shape=umlActor;verticalLabelPosition=bottom;verticalAlign=top;html=1;outlineConnect=0;" parent="1" vertex="1">
          <mxGeometry x="654" y="320" width="30" height="60" as="geometry" />
        </mxCell>
        <mxCell id="TpPR3hGTApp2_bVIP7Fh-4" value="注册" style="ellipse;whiteSpace=wrap;html=1;" parent="1" vertex="1">
          <mxGeometry x="20" y="181" width="72" height="47" as="geometry" />
        </mxCell>
        <mxCell id="TpPR3hGTApp2_bVIP7Fh-5" value="浏览主页用户" style="ellipse;whiteSpace=wrap;html=1;" parent="1" vertex="1">
          <mxGeometry x="152" y="171" width="86" height="47" as="geometry" />
        </mxCell>
        <mxCell id="TpPR3hGTApp2_bVIP7Fh-8" value="" style="endArrow=classic;html=1;rounded=0;entryX=0.5;entryY=1;entryDx=0;entryDy=0;" parent="1" target="TpPR3hGTApp2_bVIP7Fh-4" edge="1">
          <mxGeometry width="50" height="50" relative="1" as="geometry">
            <mxPoint x="111" y="298" as="sourcePoint" />
            <mxPoint x="135" y="279" as="targetPoint" />
          </mxGeometry>
        </mxCell>
        <mxCell id="TpPR3hGTApp2_bVIP7Fh-9" value="" style="endArrow=classic;html=1;rounded=0;entryX=0.5;entryY=1;entryDx=0;entryDy=0;" parent="1" target="TpPR3hGTApp2_bVIP7Fh-5" edge="1">
          <mxGeometry width="50" height="50" relative="1" as="geometry">
            <mxPoint x="176" y="304" as="sourcePoint" />
            <mxPoint x="91" y="234" as="targetPoint" />
          </mxGeometry>
        </mxCell>
        <mxCell id="TpPR3hGTApp2_bVIP7Fh-11" value="登录" style="ellipse;whiteSpace=wrap;html=1;" parent="1" vertex="1">
          <mxGeometry x="255" y="159" width="72" height="47" as="geometry" />
        </mxCell>
        <mxCell id="TpPR3hGTApp2_bVIP7Fh-12" value="个人信息管理" style="ellipse;whiteSpace=wrap;html=1;" parent="1" vertex="1">
          <mxGeometry x="329.5" y="143" width="81" height="47" as="geometry" />
        </mxCell>
        <mxCell id="TpPR3hGTApp2_bVIP7Fh-13" value="个人队伍管理" style="ellipse;whiteSpace=wrap;html=1;" parent="1" vertex="1">
          <mxGeometry x="418" y="143" width="78" height="47" as="geometry" />
        </mxCell>
        <mxCell id="TpPR3hGTApp2_bVIP7Fh-16" value="伙伴匹配" style="ellipse;whiteSpace=wrap;html=1;" parent="1" vertex="1">
          <mxGeometry x="493" y="178" width="78" height="47" as="geometry" />
        </mxCell>
        <mxCell id="TpPR3hGTApp2_bVIP7Fh-17" value="" style="endArrow=classic;html=1;rounded=0;" parent="1" target="TpPR3hGTApp2_bVIP7Fh-11" edge="1">
          <mxGeometry width="50" height="50" relative="1" as="geometry">
            <mxPoint x="342" y="320" as="sourcePoint" />
            <mxPoint x="295" y="194" as="targetPoint" />
          </mxGeometry>
        </mxCell>
        <mxCell id="TpPR3hGTApp2_bVIP7Fh-18" value="" style="endArrow=classic;html=1;rounded=0;" parent="1" target="TpPR3hGTApp2_bVIP7Fh-12" edge="1">
          <mxGeometry width="50" height="50" relative="1" as="geometry">
            <mxPoint x="363" y="316" as="sourcePoint" />
            <mxPoint x="311" y="202" as="targetPoint" />
          </mxGeometry>
        </mxCell>
        <mxCell id="TpPR3hGTApp2_bVIP7Fh-19" value="" style="endArrow=classic;html=1;rounded=0;entryX=0.5;entryY=1;entryDx=0;entryDy=0;" parent="1" target="TpPR3hGTApp2_bVIP7Fh-13" edge="1">
          <mxGeometry width="50" height="50" relative="1" as="geometry">
            <mxPoint x="382" y="319.53" as="sourcePoint" />
            <mxPoint x="462.14201232959954" y="191.99638471159213" as="targetPoint" />
          </mxGeometry>
        </mxCell>
        <mxCell id="TpPR3hGTApp2_bVIP7Fh-20" value="" style="endArrow=classic;html=1;rounded=0;entryX=0.167;entryY=1;entryDx=0;entryDy=0;entryPerimeter=0;" parent="1" target="TpPR3hGTApp2_bVIP7Fh-16" edge="1">
          <mxGeometry width="50" height="50" relative="1" as="geometry">
            <mxPoint x="410" y="323.98" as="sourcePoint" />
            <mxPoint x="526.018" y="239.00099999999995" as="targetPoint" />
          </mxGeometry>
        </mxCell>
        <mxCell id="TpPR3hGTApp2_bVIP7Fh-23" value="系统中用户的信息管理" style="ellipse;whiteSpace=wrap;html=1;" parent="1" vertex="1">
          <mxGeometry x="608" y="178" width="73" height="47" as="geometry" />
        </mxCell>
        <mxCell id="TpPR3hGTApp2_bVIP7Fh-24" value="系统中队伍管理" style="ellipse;whiteSpace=wrap;html=1;" parent="1" vertex="1">
          <mxGeometry x="726" y="192" width="72" height="47" as="geometry" />
        </mxCell>
        <mxCell id="TpPR3hGTApp2_bVIP7Fh-25" value="" style="endArrow=classic;html=1;rounded=0;entryX=0.301;entryY=0.957;entryDx=0;entryDy=0;entryPerimeter=0;" parent="1" target="TpPR3hGTApp2_bVIP7Fh-23" edge="1">
          <mxGeometry width="50" height="50" relative="1" as="geometry">
            <mxPoint x="653" y="310" as="sourcePoint" />
            <mxPoint x="522" y="236" as="targetPoint" />
          </mxGeometry>
        </mxCell>
        <mxCell id="TpPR3hGTApp2_bVIP7Fh-26" value="" style="endArrow=classic;html=1;rounded=0;entryX=0.5;entryY=1;entryDx=0;entryDy=0;" parent="1" target="TpPR3hGTApp2_bVIP7Fh-24" edge="1">
          <mxGeometry width="50" height="50" relative="1" as="geometry">
            <mxPoint x="715" y="322" as="sourcePoint" />
            <mxPoint x="653" y="245" as="targetPoint" />
          </mxGeometry>
        </mxCell>
        <mxCell id="TpPR3hGTApp2_bVIP7Fh-35" value="" style="endArrow=block;endSize=16;endFill=0;html=1;rounded=0;" parent="1" edge="1">
          <mxGeometry width="160" relative="1" as="geometry">
            <mxPoint x="628" y="357" as="sourcePoint" />
            <mxPoint x="392" y="359" as="targetPoint" />
          </mxGeometry>
        </mxCell>
        <mxCell id="TpPR3hGTApp2_bVIP7Fh-36" value="" style="endArrow=block;endSize=16;endFill=0;html=1;rounded=0;" parent="1" edge="1">
          <mxGeometry width="160" relative="1" as="geometry">
            <mxPoint x="330" y="361" as="sourcePoint" />
            <mxPoint x="158" y="361" as="targetPoint" />
          </mxGeometry>
        </mxCell>
        <mxCell id="p6fOqJflqeixN8YDEamX-1" value="伙伴匹配系统" style="rounded=0;whiteSpace=wrap;html=1;" vertex="1" parent="1">
          <mxGeometry x="295" y="551" width="162" height="60" as="geometry" />
        </mxCell>
        <mxCell id="p6fOqJflqeixN8YDEamX-5" value="" style="rounded=1;whiteSpace=wrap;html=1;" vertex="1" parent="1">
          <mxGeometry x="352" y="450" width="120" height="60" as="geometry" />
        </mxCell>
        <mxCell id="p6fOqJflqeixN8YDEamX-7" value="&lt;p&gt;&lt;span style=&quot;font-weight: normal;&quot;&gt;用户登录注册&lt;/span&gt;&lt;/p&gt;" style="rounded=0;whiteSpace=wrap;html=1;labelPosition=center;verticalLabelPosition=middle;align=center;verticalAlign=middle;" vertex="1" parent="1">
          <mxGeometry x="267" y="659" width="25" height="146" as="geometry" />
        </mxCell>
        <mxCell id="p6fOqJflqeixN8YDEamX-13" value="&lt;p&gt;&lt;span style=&quot;font-weight: normal;&quot;&gt;用户信息管理&lt;/span&gt;&lt;/p&gt;" style="rounded=0;whiteSpace=wrap;html=1;labelPosition=center;verticalLabelPosition=middle;align=center;verticalAlign=middle;" vertex="1" parent="1">
          <mxGeometry x="317" y="659" width="25" height="146" as="geometry" />
        </mxCell>
        <mxCell id="p6fOqJflqeixN8YDEamX-14" value="&lt;p&gt;&lt;span style=&quot;font-weight: normal;&quot;&gt;队伍管理&lt;/span&gt;&lt;/p&gt;" style="rounded=0;whiteSpace=wrap;html=1;labelPosition=center;verticalLabelPosition=middle;align=center;verticalAlign=middle;" vertex="1" parent="1">
          <mxGeometry x="453" y="659" width="25" height="146" as="geometry" />
        </mxCell>
        <mxCell id="p6fOqJflqeixN8YDEamX-15" value="&lt;p&gt;&lt;span style=&quot;font-weight: normal;&quot;&gt;伙伴匹配&lt;/span&gt;&lt;/p&gt;" style="rounded=0;whiteSpace=wrap;html=1;labelPosition=center;verticalLabelPosition=middle;align=center;verticalAlign=middle;" vertex="1" parent="1">
          <mxGeometry x="357.5" y="659" width="25" height="146" as="geometry" />
        </mxCell>
        <mxCell id="p6fOqJflqeixN8YDEamX-16" value="&lt;p&gt;&lt;span style=&quot;font-weight: normal;&quot;&gt;标签管理&lt;/span&gt;&lt;/p&gt;" style="rounded=0;whiteSpace=wrap;html=1;labelPosition=center;verticalLabelPosition=middle;align=center;verticalAlign=middle;" vertex="1" parent="1">
          <mxGeometry x="404" y="659" width="25" height="146" as="geometry" />
        </mxCell>
        <mxCell id="p6fOqJflqeixN8YDEamX-22" value="" style="endArrow=none;html=1;rounded=0;fontFamily=Helvetica;fontSize=12;fontColor=default;entryX=0.462;entryY=0.983;entryDx=0;entryDy=0;entryPerimeter=0;" edge="1" parent="1" target="p6fOqJflqeixN8YDEamX-1">
          <mxGeometry width="50" height="50" relative="1" as="geometry">
            <mxPoint x="370" y="643" as="sourcePoint" />
            <mxPoint x="317" y="620" as="targetPoint" />
          </mxGeometry>
        </mxCell>
        <mxCell id="p6fOqJflqeixN8YDEamX-23" value="" style="endArrow=none;html=1;rounded=0;fontFamily=Helvetica;fontSize=12;fontColor=default;" edge="1" parent="1">
          <mxGeometry width="50" height="50" relative="1" as="geometry">
            <mxPoint x="278" y="644" as="sourcePoint" />
            <mxPoint x="462" y="643" as="targetPoint" />
          </mxGeometry>
        </mxCell>
        <mxCell id="p6fOqJflqeixN8YDEamX-24" value="" style="endArrow=none;html=1;rounded=0;fontFamily=Helvetica;fontSize=12;fontColor=default;" edge="1" parent="1">
          <mxGeometry width="50" height="50" relative="1" as="geometry">
            <mxPoint x="279.26" y="659" as="sourcePoint" />
            <mxPoint x="279.26" y="644" as="targetPoint" />
          </mxGeometry>
        </mxCell>
        <mxCell id="p6fOqJflqeixN8YDEamX-27" value="" style="endArrow=none;html=1;rounded=0;fontFamily=Helvetica;fontSize=12;fontColor=default;" edge="1" parent="1">
          <mxGeometry width="50" height="50" relative="1" as="geometry">
            <mxPoint x="329.26" y="659" as="sourcePoint" />
            <mxPoint x="329.26" y="644" as="targetPoint" />
          </mxGeometry>
        </mxCell>
        <mxCell id="p6fOqJflqeixN8YDEamX-28" value="" style="endArrow=none;html=1;rounded=0;fontFamily=Helvetica;fontSize=12;fontColor=default;" edge="1" parent="1">
          <mxGeometry width="50" height="50" relative="1" as="geometry">
            <mxPoint x="369.76" y="659" as="sourcePoint" />
            <mxPoint x="369.76" y="644" as="targetPoint" />
          </mxGeometry>
        </mxCell>
        <mxCell id="p6fOqJflqeixN8YDEamX-31" value="" style="endArrow=none;html=1;rounded=0;fontFamily=Helvetica;fontSize=12;fontColor=default;" edge="1" parent="1">
          <mxGeometry width="50" height="50" relative="1" as="geometry">
            <mxPoint x="416.26" y="659" as="sourcePoint" />
            <mxPoint x="416" y="643" as="targetPoint" />
          </mxGeometry>
        </mxCell>
        <mxCell id="p6fOqJflqeixN8YDEamX-37" value="" style="endArrow=none;html=1;rounded=0;fontFamily=Helvetica;fontSize=12;fontColor=default;" edge="1" parent="1">
          <mxGeometry width="50" height="50" relative="1" as="geometry">
            <mxPoint x="462" y="658" as="sourcePoint" />
            <mxPoint x="462" y="643" as="targetPoint" />
          </mxGeometry>
        </mxCell>
        <mxCell id="p6fOqJflqeixN8YDEamX-43" style="edgeStyle=orthogonalEdgeStyle;rounded=0;orthogonalLoop=1;jettySize=auto;html=1;fontFamily=Helvetica;fontSize=12;fontColor=default;entryX=0.5;entryY=0;entryDx=0;entryDy=0;entryPerimeter=0;" edge="1" parent="1" source="p6fOqJflqeixN8YDEamX-39" target="p6fOqJflqeixN8YDEamX-45">
          <mxGeometry relative="1" as="geometry">
            <mxPoint x="279.5" y="1461.1904761904761" as="targetPoint" />
          </mxGeometry>
        </mxCell>
        <mxCell id="p6fOqJflqeixN8YDEamX-39" value="用户" style="shape=umlActor;verticalLabelPosition=bottom;verticalAlign=top;html=1;rounded=0;strokeColor=default;align=center;fontFamily=Helvetica;fontSize=12;fontColor=default;fillColor=default;" vertex="1" parent="1">
          <mxGeometry x="267.5" y="1357" width="24" height="50" as="geometry" />
        </mxCell>
        <mxCell id="p6fOqJflqeixN8YDEamX-42" value="游客&lt;span style=&quot;white-space: pre;&quot;&gt;&#x9;&lt;/span&gt;&lt;span style=&quot;white-space: pre;&quot;&gt;&#x9;&lt;/span&gt;&lt;span style=&quot;white-space: pre;&quot;&gt;&#x9;&lt;/span&gt;&lt;span style=&quot;white-space: pre;&quot;&gt;&#x9;&lt;/span&gt;&lt;span style=&quot;white-space: pre;&quot;&gt;&#x9;&lt;/span&gt;系统" style="rounded=0;whiteSpace=wrap;html=1;strokeColor=#666666;align=center;verticalAlign=middle;fontFamily=Helvetica;fontSize=12;fontColor=#333333;fillColor=#f5f5f5;" vertex="1" parent="1">
          <mxGeometry x="147" y="1303" width="403" height="30" as="geometry" />
        </mxCell>
        <mxCell id="p6fOqJflqeixN8YDEamX-48" value="" style="edgeStyle=orthogonalEdgeStyle;rounded=0;orthogonalLoop=1;jettySize=auto;html=1;fontFamily=Helvetica;fontSize=12;fontColor=default;" edge="1" parent="1" source="p6fOqJflqeixN8YDEamX-45" target="p6fOqJflqeixN8YDEamX-47">
          <mxGeometry relative="1" as="geometry" />
        </mxCell>
        <mxCell id="p6fOqJflqeixN8YDEamX-45" value="填写信息" style="strokeWidth=2;html=1;shape=mxgraph.flowchart.terminator;whiteSpace=wrap;rounded=0;strokeColor=default;align=center;verticalAlign=middle;fontFamily=Helvetica;fontSize=12;fontColor=default;fillColor=default;" vertex="1" parent="1">
          <mxGeometry x="237.5" y="1448" width="85" height="37" as="geometry" />
        </mxCell>
        <mxCell id="p6fOqJflqeixN8YDEamX-46" value="" style="endArrow=none;html=1;rounded=0;fontFamily=Helvetica;fontSize=12;fontColor=default;entryX=0.489;entryY=0.987;entryDx=0;entryDy=0;entryPerimeter=0;strokeColor=#e83030;" edge="1" parent="1" target="p6fOqJflqeixN8YDEamX-42">
          <mxGeometry width="50" height="50" relative="1" as="geometry">
            <mxPoint x="344" y="1924" as="sourcePoint" />
            <mxPoint x="398.5" y="1381" as="targetPoint" />
          </mxGeometry>
        </mxCell>
        <mxCell id="p6fOqJflqeixN8YDEamX-49" style="edgeStyle=orthogonalEdgeStyle;rounded=0;orthogonalLoop=1;jettySize=auto;html=1;fontFamily=Helvetica;fontSize=12;fontColor=default;entryX=0;entryY=0.5;entryDx=0;entryDy=0;entryPerimeter=0;" edge="1" parent="1" source="p6fOqJflqeixN8YDEamX-47" target="p6fOqJflqeixN8YDEamX-50">
          <mxGeometry relative="1" as="geometry">
            <mxPoint x="404.4047619047619" y="1544.4999999999998" as="targetPoint" />
          </mxGeometry>
        </mxCell>
        <mxCell id="p6fOqJflqeixN8YDEamX-47" value="注册" style="strokeWidth=2;html=1;shape=mxgraph.flowchart.terminator;whiteSpace=wrap;rounded=0;strokeColor=default;align=center;verticalAlign=middle;fontFamily=Helvetica;fontSize=12;fontColor=default;fillColor=default;" vertex="1" parent="1">
          <mxGeometry x="237" y="1526" width="85" height="37" as="geometry" />
        </mxCell>
        <mxCell id="p6fOqJflqeixN8YDEamX-52" value="" style="edgeStyle=orthogonalEdgeStyle;rounded=0;orthogonalLoop=1;jettySize=auto;html=1;fontFamily=Helvetica;fontSize=12;fontColor=default;" edge="1" parent="1" source="p6fOqJflqeixN8YDEamX-50" target="p6fOqJflqeixN8YDEamX-51">
          <mxGeometry relative="1" as="geometry" />
        </mxCell>
        <mxCell id="p6fOqJflqeixN8YDEamX-50" value="接受参数" style="strokeWidth=2;html=1;shape=mxgraph.flowchart.terminator;whiteSpace=wrap;rounded=0;strokeColor=default;align=center;verticalAlign=middle;fontFamily=Helvetica;fontSize=12;fontColor=default;fillColor=default;" vertex="1" parent="1">
          <mxGeometry x="406.5" y="1526" width="85" height="37" as="geometry" />
        </mxCell>
        <mxCell id="p6fOqJflqeixN8YDEamX-57" value="" style="edgeStyle=orthogonalEdgeStyle;rounded=0;orthogonalLoop=1;jettySize=auto;html=1;fontFamily=Helvetica;fontSize=12;fontColor=default;" edge="1" parent="1" source="p6fOqJflqeixN8YDEamX-51" target="p6fOqJflqeixN8YDEamX-56">
          <mxGeometry relative="1" as="geometry" />
        </mxCell>
        <mxCell id="p6fOqJflqeixN8YDEamX-51" value="校验参数" style="strokeWidth=2;html=1;shape=mxgraph.flowchart.terminator;whiteSpace=wrap;rounded=0;strokeColor=default;align=center;verticalAlign=middle;fontFamily=Helvetica;fontSize=12;fontColor=default;fillColor=default;" vertex="1" parent="1">
          <mxGeometry x="406.5" y="1602" width="85" height="37" as="geometry" />
        </mxCell>
        <mxCell id="p6fOqJflqeixN8YDEamX-62" style="edgeStyle=orthogonalEdgeStyle;rounded=0;orthogonalLoop=1;jettySize=auto;html=1;fontFamily=Helvetica;fontSize=12;fontColor=default;" edge="1" parent="1" source="p6fOqJflqeixN8YDEamX-56" target="p6fOqJflqeixN8YDEamX-63">
          <mxGeometry relative="1" as="geometry">
            <mxPoint x="449" y="1825.952380952381" as="targetPoint" />
          </mxGeometry>
        </mxCell>
        <mxCell id="p6fOqJflqeixN8YDEamX-79" style="edgeStyle=orthogonalEdgeStyle;rounded=0;orthogonalLoop=1;jettySize=auto;html=1;entryX=1;entryY=0.5;entryDx=0;entryDy=0;fontFamily=Helvetica;fontSize=12;fontColor=default;" edge="1" parent="1" source="p6fOqJflqeixN8YDEamX-56" target="p6fOqJflqeixN8YDEamX-78">
          <mxGeometry relative="1" as="geometry" />
        </mxCell>
        <mxCell id="p6fOqJflqeixN8YDEamX-56" value="" style="rhombus;whiteSpace=wrap;html=1;strokeWidth=2;rounded=0;" vertex="1" parent="1">
          <mxGeometry x="409.5" y="1685" width="80" height="36.5" as="geometry" />
        </mxCell>
        <mxCell id="p6fOqJflqeixN8YDEamX-58" value="信息是否合法" style="text;html=1;align=center;verticalAlign=middle;resizable=0;points=[];autosize=1;strokeColor=none;fillColor=none;fontSize=12;fontFamily=Helvetica;fontColor=default;" vertex="1" parent="1">
          <mxGeometry x="448" y="1651" width="90" height="26" as="geometry" />
        </mxCell>
        <mxCell id="p6fOqJflqeixN8YDEamX-69" value="" style="edgeStyle=orthogonalEdgeStyle;rounded=0;orthogonalLoop=1;jettySize=auto;html=1;fontFamily=Helvetica;fontSize=12;fontColor=default;" edge="1" parent="1" source="p6fOqJflqeixN8YDEamX-63" target="p6fOqJflqeixN8YDEamX-68">
          <mxGeometry relative="1" as="geometry" />
        </mxCell>
        <mxCell id="p6fOqJflqeixN8YDEamX-63" value="对用户密码&lt;br&gt;加密保护" style="strokeWidth=2;html=1;shape=mxgraph.flowchart.terminator;whiteSpace=wrap;rounded=0;strokeColor=default;align=center;verticalAlign=middle;fontFamily=Helvetica;fontSize=12;fontColor=default;fillColor=default;" vertex="1" parent="1">
          <mxGeometry x="401.87" y="1754" width="94.25" height="37" as="geometry" />
        </mxCell>
        <mxCell id="p6fOqJflqeixN8YDEamX-64" value="合法" style="text;html=1;align=center;verticalAlign=middle;resizable=0;points=[];autosize=1;strokeColor=none;fillColor=none;fontSize=12;fontFamily=Helvetica;fontColor=default;" vertex="1" parent="1">
          <mxGeometry x="456.5" y="1728" width="42" height="26" as="geometry" />
        </mxCell>
        <mxCell id="p6fOqJflqeixN8YDEamX-67" value="不合法" style="text;html=1;align=center;verticalAlign=middle;resizable=0;points=[];autosize=1;strokeColor=none;fillColor=none;fontSize=12;fontFamily=Helvetica;fontColor=default;" vertex="1" parent="1">
          <mxGeometry x="365.5" y="1672" width="54" height="26" as="geometry" />
        </mxCell>
        <mxCell id="p6fOqJflqeixN8YDEamX-82" style="edgeStyle=orthogonalEdgeStyle;rounded=0;orthogonalLoop=1;jettySize=auto;html=1;fontFamily=Helvetica;fontSize=12;fontColor=default;entryX=0.5;entryY=0;entryDx=0;entryDy=0;" edge="1" parent="1" source="p6fOqJflqeixN8YDEamX-68" target="p6fOqJflqeixN8YDEamX-83">
          <mxGeometry relative="1" as="geometry">
            <mxPoint x="449.5" y="1909.3333333333335" as="targetPoint" />
          </mxGeometry>
        </mxCell>
        <mxCell id="p6fOqJflqeixN8YDEamX-68" value="添加用户" style="strokeWidth=2;html=1;shape=mxgraph.flowchart.terminator;whiteSpace=wrap;rounded=0;strokeColor=default;align=center;verticalAlign=middle;fontFamily=Helvetica;fontSize=12;fontColor=default;fillColor=default;" vertex="1" parent="1">
          <mxGeometry x="407" y="1834" width="85" height="37" as="geometry" />
        </mxCell>
        <mxCell id="p6fOqJflqeixN8YDEamX-81" value="" style="edgeStyle=orthogonalEdgeStyle;rounded=0;orthogonalLoop=1;jettySize=auto;html=1;fontFamily=Helvetica;fontSize=12;fontColor=default;" edge="1" parent="1" source="p6fOqJflqeixN8YDEamX-78" target="p6fOqJflqeixN8YDEamX-63">
          <mxGeometry relative="1" as="geometry" />
        </mxCell>
        <mxCell id="p6fOqJflqeixN8YDEamX-78" value="" style="ellipse;html=1;shape=endState;fillColor=#000000;strokeColor=#ff0000;rounded=0;align=center;verticalAlign=middle;fontFamily=Helvetica;fontSize=12;fontColor=default;" vertex="1" parent="1">
          <mxGeometry x="360.5" y="1693.25" width="19" height="20" as="geometry" />
        </mxCell>
        <mxCell id="p6fOqJflqeixN8YDEamX-83" value="" style="ellipse;html=1;shape=endState;fillColor=#000000;strokeColor=#ff0000;rounded=0;align=center;verticalAlign=middle;fontFamily=Helvetica;fontSize=12;fontColor=default;" vertex="1" parent="1">
          <mxGeometry x="439" y="1902" width="21" height="24" as="geometry" />
        </mxCell>
        <mxCell id="p6fOqJflqeixN8YDEamX-86" value="" style="endArrow=none;html=1;rounded=0;fontFamily=Helvetica;fontSize=12;fontColor=default;entryX=0.489;entryY=0.987;entryDx=0;entryDy=0;entryPerimeter=0;strokeColor=#e83030;" edge="1" parent="1">
          <mxGeometry width="50" height="50" relative="1" as="geometry">
            <mxPoint x="550" y="1933" as="sourcePoint" />
            <mxPoint x="550" y="1333" as="targetPoint" />
          </mxGeometry>
        </mxCell>
        <mxCell id="p6fOqJflqeixN8YDEamX-87" value="" style="endArrow=none;html=1;rounded=0;fontFamily=Helvetica;fontSize=12;fontColor=default;entryX=0.489;entryY=0.987;entryDx=0;entryDy=0;entryPerimeter=0;strokeColor=#e83030;" edge="1" parent="1">
          <mxGeometry width="50" height="50" relative="1" as="geometry">
            <mxPoint x="147" y="1924" as="sourcePoint" />
            <mxPoint x="147" y="1333" as="targetPoint" />
          </mxGeometry>
        </mxCell>
        <mxCell id="p6fOqJflqeixN8YDEamX-88" style="edgeStyle=orthogonalEdgeStyle;rounded=0;orthogonalLoop=1;jettySize=auto;html=1;fontFamily=Helvetica;fontSize=12;fontColor=default;entryX=0.5;entryY=0;entryDx=0;entryDy=0;entryPerimeter=0;" edge="1" parent="1" source="p6fOqJflqeixN8YDEamX-89" target="p6fOqJflqeixN8YDEamX-92">
          <mxGeometry relative="1" as="geometry">
            <mxPoint x="313.5" y="2664.190476190476" as="targetPoint" />
          </mxGeometry>
        </mxCell>
        <mxCell id="p6fOqJflqeixN8YDEamX-89" value="用户" style="shape=umlActor;verticalLabelPosition=bottom;verticalAlign=top;html=1;rounded=0;strokeColor=default;align=center;fontFamily=Helvetica;fontSize=12;fontColor=default;fillColor=default;" vertex="1" parent="1">
          <mxGeometry x="301.5" y="2560" width="24" height="50" as="geometry" />
        </mxCell>
        <mxCell id="p6fOqJflqeixN8YDEamX-90" value="游客&lt;span style=&quot;white-space: pre;&quot;&gt;&#x9;&lt;/span&gt;&lt;span style=&quot;white-space: pre;&quot;&gt;&#x9;&lt;/span&gt;&lt;span style=&quot;white-space: pre;&quot;&gt;&#x9;&lt;/span&gt;&lt;span style=&quot;white-space: pre;&quot;&gt;&#x9;&lt;/span&gt;&lt;span style=&quot;white-space: pre;&quot;&gt;&#x9;&lt;/span&gt;系统" style="rounded=0;whiteSpace=wrap;html=1;strokeColor=#666666;align=center;verticalAlign=middle;fontFamily=Helvetica;fontSize=12;fontColor=#333333;fillColor=#f5f5f5;" vertex="1" parent="1">
          <mxGeometry x="181" y="2506" width="403" height="30" as="geometry" />
        </mxCell>
        <mxCell id="p6fOqJflqeixN8YDEamX-91" value="" style="edgeStyle=orthogonalEdgeStyle;rounded=0;orthogonalLoop=1;jettySize=auto;html=1;fontFamily=Helvetica;fontSize=12;fontColor=default;" edge="1" parent="1" source="p6fOqJflqeixN8YDEamX-92" target="p6fOqJflqeixN8YDEamX-95">
          <mxGeometry relative="1" as="geometry" />
        </mxCell>
        <mxCell id="p6fOqJflqeixN8YDEamX-92" value="填写信息" style="strokeWidth=2;html=1;shape=mxgraph.flowchart.terminator;whiteSpace=wrap;rounded=0;strokeColor=default;align=center;verticalAlign=middle;fontFamily=Helvetica;fontSize=12;fontColor=default;fillColor=default;" vertex="1" parent="1">
          <mxGeometry x="271.5" y="2651" width="85" height="37" as="geometry" />
        </mxCell>
        <mxCell id="p6fOqJflqeixN8YDEamX-93" value="" style="endArrow=none;html=1;rounded=0;fontFamily=Helvetica;fontSize=12;fontColor=default;entryX=0.489;entryY=0.987;entryDx=0;entryDy=0;entryPerimeter=0;strokeColor=#e83030;" edge="1" parent="1" target="p6fOqJflqeixN8YDEamX-90">
          <mxGeometry width="50" height="50" relative="1" as="geometry">
            <mxPoint x="378" y="3127" as="sourcePoint" />
            <mxPoint x="432.5" y="2584" as="targetPoint" />
          </mxGeometry>
        </mxCell>
        <mxCell id="p6fOqJflqeixN8YDEamX-94" style="edgeStyle=orthogonalEdgeStyle;rounded=0;orthogonalLoop=1;jettySize=auto;html=1;fontFamily=Helvetica;fontSize=12;fontColor=default;entryX=0;entryY=0.5;entryDx=0;entryDy=0;entryPerimeter=0;" edge="1" parent="1" source="p6fOqJflqeixN8YDEamX-95" target="p6fOqJflqeixN8YDEamX-97">
          <mxGeometry relative="1" as="geometry">
            <mxPoint x="438.4047619047619" y="2747.5" as="targetPoint" />
          </mxGeometry>
        </mxCell>
        <mxCell id="p6fOqJflqeixN8YDEamX-95" value="登录" style="strokeWidth=2;html=1;shape=mxgraph.flowchart.terminator;whiteSpace=wrap;rounded=0;strokeColor=default;align=center;verticalAlign=middle;fontFamily=Helvetica;fontSize=12;fontColor=default;fillColor=default;" vertex="1" parent="1">
          <mxGeometry x="271" y="2729" width="85" height="37" as="geometry" />
        </mxCell>
        <mxCell id="p6fOqJflqeixN8YDEamX-96" value="" style="edgeStyle=orthogonalEdgeStyle;rounded=0;orthogonalLoop=1;jettySize=auto;html=1;fontFamily=Helvetica;fontSize=12;fontColor=default;" edge="1" parent="1" source="p6fOqJflqeixN8YDEamX-97" target="p6fOqJflqeixN8YDEamX-99">
          <mxGeometry relative="1" as="geometry" />
        </mxCell>
        <mxCell id="p6fOqJflqeixN8YDEamX-97" value="接受参数" style="strokeWidth=2;html=1;shape=mxgraph.flowchart.terminator;whiteSpace=wrap;rounded=0;strokeColor=default;align=center;verticalAlign=middle;fontFamily=Helvetica;fontSize=12;fontColor=default;fillColor=default;" vertex="1" parent="1">
          <mxGeometry x="440.5" y="2729" width="85" height="37" as="geometry" />
        </mxCell>
        <mxCell id="p6fOqJflqeixN8YDEamX-98" value="" style="edgeStyle=orthogonalEdgeStyle;rounded=0;orthogonalLoop=1;jettySize=auto;html=1;fontFamily=Helvetica;fontSize=12;fontColor=default;" edge="1" parent="1" source="p6fOqJflqeixN8YDEamX-99" target="p6fOqJflqeixN8YDEamX-102">
          <mxGeometry relative="1" as="geometry" />
        </mxCell>
        <mxCell id="p6fOqJflqeixN8YDEamX-99" value="校验参数" style="strokeWidth=2;html=1;shape=mxgraph.flowchart.terminator;whiteSpace=wrap;rounded=0;strokeColor=default;align=center;verticalAlign=middle;fontFamily=Helvetica;fontSize=12;fontColor=default;fillColor=default;" vertex="1" parent="1">
          <mxGeometry x="440.5" y="2805" width="85" height="37" as="geometry" />
        </mxCell>
        <mxCell id="p6fOqJflqeixN8YDEamX-100" style="edgeStyle=orthogonalEdgeStyle;rounded=0;orthogonalLoop=1;jettySize=auto;html=1;fontFamily=Helvetica;fontSize=12;fontColor=default;entryX=0.5;entryY=0;entryDx=0;entryDy=0;entryPerimeter=0;" edge="1" parent="1" source="p6fOqJflqeixN8YDEamX-102" target="p6fOqJflqeixN8YDEamX-119">
          <mxGeometry relative="1" as="geometry">
            <mxPoint x="483" y="3028.9523809523807" as="targetPoint" />
          </mxGeometry>
        </mxCell>
        <mxCell id="p6fOqJflqeixN8YDEamX-101" style="edgeStyle=orthogonalEdgeStyle;rounded=0;orthogonalLoop=1;jettySize=auto;html=1;entryX=1;entryY=0.5;entryDx=0;entryDy=0;fontFamily=Helvetica;fontSize=12;fontColor=default;" edge="1" parent="1" source="p6fOqJflqeixN8YDEamX-102" target="p6fOqJflqeixN8YDEamX-111">
          <mxGeometry relative="1" as="geometry" />
        </mxCell>
        <mxCell id="p6fOqJflqeixN8YDEamX-102" value="" style="rhombus;whiteSpace=wrap;html=1;strokeWidth=2;rounded=0;" vertex="1" parent="1">
          <mxGeometry x="443.5" y="2888" width="80" height="36.5" as="geometry" />
        </mxCell>
        <mxCell id="p6fOqJflqeixN8YDEamX-103" value="信息是否正确" style="text;html=1;align=center;verticalAlign=middle;resizable=0;points=[];autosize=1;strokeColor=none;fillColor=none;fontSize=12;fontFamily=Helvetica;fontColor=default;" vertex="1" parent="1">
          <mxGeometry x="482" y="2854" width="90" height="26" as="geometry" />
        </mxCell>
        <mxCell id="p6fOqJflqeixN8YDEamX-115" style="edgeStyle=orthogonalEdgeStyle;rounded=0;orthogonalLoop=1;jettySize=auto;html=1;entryX=0.5;entryY=0;entryDx=0;entryDy=0;fontFamily=Helvetica;fontSize=12;fontColor=default;" edge="1" parent="1" source="p6fOqJflqeixN8YDEamX-105" target="p6fOqJflqeixN8YDEamX-123">
          <mxGeometry relative="1" as="geometry">
            <mxPoint x="482.5" y="3111" as="targetPoint" />
          </mxGeometry>
        </mxCell>
        <mxCell id="p6fOqJflqeixN8YDEamX-105" value="登录成功" style="strokeWidth=2;html=1;shape=mxgraph.flowchart.terminator;whiteSpace=wrap;rounded=0;strokeColor=default;align=center;verticalAlign=middle;fontFamily=Helvetica;fontSize=12;fontColor=default;fillColor=default;" vertex="1" parent="1">
          <mxGeometry x="435.88" y="3040" width="94.25" height="37" as="geometry" />
        </mxCell>
        <mxCell id="p6fOqJflqeixN8YDEamX-106" value="正确" style="text;html=1;align=center;verticalAlign=middle;resizable=0;points=[];autosize=1;strokeColor=none;fillColor=none;fontSize=12;fontFamily=Helvetica;fontColor=default;" vertex="1" parent="1">
          <mxGeometry x="490.5" y="2931" width="42" height="26" as="geometry" />
        </mxCell>
        <mxCell id="p6fOqJflqeixN8YDEamX-107" value="不正确" style="text;html=1;align=center;verticalAlign=middle;resizable=0;points=[];autosize=1;strokeColor=none;fillColor=none;fontSize=12;fontFamily=Helvetica;fontColor=default;" vertex="1" parent="1">
          <mxGeometry x="399.5" y="2875" width="54" height="26" as="geometry" />
        </mxCell>
        <mxCell id="p6fOqJflqeixN8YDEamX-111" value="" style="ellipse;html=1;shape=endState;fillColor=#000000;strokeColor=#ff0000;rounded=0;align=center;verticalAlign=middle;fontFamily=Helvetica;fontSize=12;fontColor=default;" vertex="1" parent="1">
          <mxGeometry x="394.5" y="2896.25" width="19" height="20" as="geometry" />
        </mxCell>
        <mxCell id="p6fOqJflqeixN8YDEamX-113" value="" style="endArrow=none;html=1;rounded=0;fontFamily=Helvetica;fontSize=12;fontColor=default;entryX=0.489;entryY=0.987;entryDx=0;entryDy=0;entryPerimeter=0;strokeColor=#e83030;" edge="1" parent="1">
          <mxGeometry width="50" height="50" relative="1" as="geometry">
            <mxPoint x="584" y="3136" as="sourcePoint" />
            <mxPoint x="584" y="2536" as="targetPoint" />
          </mxGeometry>
        </mxCell>
        <mxCell id="p6fOqJflqeixN8YDEamX-114" value="" style="endArrow=none;html=1;rounded=0;fontFamily=Helvetica;fontSize=12;fontColor=default;entryX=0.489;entryY=0.987;entryDx=0;entryDy=0;entryPerimeter=0;strokeColor=#e83030;" edge="1" parent="1">
          <mxGeometry width="50" height="50" relative="1" as="geometry">
            <mxPoint x="181" y="3127" as="sourcePoint" />
            <mxPoint x="181" y="2536" as="targetPoint" />
          </mxGeometry>
        </mxCell>
        <mxCell id="p6fOqJflqeixN8YDEamX-119" value="设置登录态" style="strokeWidth=2;html=1;shape=mxgraph.flowchart.terminator;whiteSpace=wrap;rounded=0;strokeColor=default;align=center;verticalAlign=middle;fontFamily=Helvetica;fontSize=12;fontColor=default;fillColor=default;" vertex="1" parent="1">
          <mxGeometry x="435.88" y="2963" width="94.25" height="37" as="geometry" />
        </mxCell>
        <mxCell id="p6fOqJflqeixN8YDEamX-122" style="edgeStyle=orthogonalEdgeStyle;rounded=0;orthogonalLoop=1;jettySize=auto;html=1;entryX=0.5;entryY=0;entryDx=0;entryDy=0;entryPerimeter=0;fontFamily=Helvetica;fontSize=12;fontColor=default;" edge="1" parent="1" source="p6fOqJflqeixN8YDEamX-119" target="p6fOqJflqeixN8YDEamX-105">
          <mxGeometry relative="1" as="geometry" />
        </mxCell>
        <mxCell id="p6fOqJflqeixN8YDEamX-123" value="" style="ellipse;html=1;shape=endState;fillColor=#000000;strokeColor=#ff0000;rounded=0;align=center;verticalAlign=middle;fontFamily=Helvetica;fontSize=12;fontColor=default;" vertex="1" parent="1">
          <mxGeometry x="471" y="3111" width="24" height="23" as="geometry" />
        </mxCell>
      </root>
    </mxGraphModel>
  </diagram>
</mxfile>
